<?xml version="1.0" encoding="UTF-8" ?>
<svg version="1.1" width="57" height="13" xmlns="http://www.w3.org/2000/svg" shape-rendering="crispEdges">
<rect x="0" y="0" width="40" height="1" fill="#0D0D0D" />
<rect x="40" y="0" width="6" height="1" fill="#B23434" />
<rect x="46" y="0" width="11" height="1" fill="#0D0D0D" />
<rect x="0" y="1" width="39" height="3" fill="#0D0D0D" />
<rect x="39" y="1" width="1" height="3" fill="#B23434" />
<rect x="40" y="1" width="2" height="2" fill="#0F0F0F" />
<rect x="42" y="1" width="1" height="2" fill="#B23434" />
<rect x="43" y="1" width="2" height="2" fill="#0F0F0F" />
<rect x="45" y="1" width="2" height="2" fill="#B23434" />
<rect x="47" y="1" width="10" height="5" fill="#0D0D0D" />
<rect x="40" y="3" width="2" height="1" fill="#B23434" />
<rect x="42" y="3" width="1" height="1" fill="#0F0F0F" />
<rect x="43" y="3" width="2" height="1" fill="#B23434" />
<rect x="45" y="3" width="2" height="1" fill="#E29C9C" />
<rect x="0" y="4" width="5" height="2" fill="#B23434" />
<rect x="5" y="4" width="36" height="2" fill="#0D0D0D" />
<rect x="41" y="4" width="2" height="1" fill="#B23434" />
<rect x="43" y="4" width="2" height="1" fill="#E29C9C" />
<rect x="45" y="4" width="2" height="2" fill="#0D0D0D" />
<rect x="41" y="5" width="4" height="1" fill="#0D0D0D" />
<rect x="0" y="6" width="2" height="2" fill="#B23434" />
<rect x="2" y="6" width="4" height="2" fill="#0D0D0D" />
<rect x="6" y="6" width="2" height="2" fill="#B23434" />
<rect x="8" y="6" width="1" height="3" fill="#0D0D0D" />
<rect x="9" y="6" width="2" height="2" fill="#B23434" />
<rect x="11" y="6" width="1" height="7" fill="#0D0D0D" />
<rect x="12" y="6" width="4" height="2" fill="#B23434" />
<rect x="16" y="6" width="1" height="7" fill="#0D0D0D" />
<rect x="17" y="6" width="5" height="1" fill="#B23434" />
<rect x="22" y="6" width="1" height="7" fill="#0D0D0D" />
<rect x="23" y="6" width="2" height="2" fill="#B23434" />
<rect x="25" y="6" width="2" height="5" fill="#0D0D0D" />
<rect x="27" y="6" width="1" height="3" fill="#B23434" />
<rect x="28" y="6" width="1" height="7" fill="#0D0D0D" />
<rect x="29" y="6" width="5" height="1" fill="#B23434" />
<rect x="34" y="6" width="1" height="7" fill="#0D0D0D" />
<rect x="35" y="6" width="6" height="2" fill="#B23434" />
<rect x="41" y="6" width="1" height="7" fill="#0D0D0D" />
<rect x="42" y="6" width="2" height="2" fill="#B23434" />
<rect x="44" y="6" width="1" height="7" fill="#0D0D0D" />
<rect x="45" y="6" width="5" height="1" fill="#B23434" />
<rect x="50" y="6" width="1" height="7" fill="#0D0D0D" />
<rect x="51" y="6" width="2" height="2" fill="#B23434" />
<rect x="53" y="6" width="2" height="1" fill="#0D0D0D" />
<rect x="55" y="6" width="2" height="2" fill="#B23434" />
<rect x="17" y="7" width="2" height="1" fill="#B23434" />
<rect x="19" y="7" width="2" height="4" fill="#0D0D0D" />
<rect x="21" y="7" width="1" height="1" fill="#B23434" />
<rect x="29" y="7" width="2" height="1" fill="#B23434" />
<rect x="31" y="7" width="2" height="4" fill="#0D0D0D" />
<rect x="33" y="7" width="1" height="1" fill="#B23434" />
<rect x="45" y="7" width="2" height="1" fill="#B23434" />
<rect x="47" y="7" width="2" height="5" fill="#0D0D0D" />
<rect x="49" y="7" width="1" height="1" fill="#B23434" />
<rect x="53" y="7" width="1" height="1" fill="#B23434" />
<rect x="54" y="7" width="1" height="1" fill="#0D0D0D" />
<rect x="0" y="8" width="1" height="1" fill="#B23434" />
<rect x="1" y="8" width="3" height="2" fill="#E29C9C" />
<rect x="4" y="8" width="2" height="3" fill="#0D0D0D" />
<rect x="6" y="8" width="1" height="1" fill="#B23434" />
<rect x="7" y="8" width="1" height="3" fill="#E29C9C" />
<rect x="9" y="8" width="1" height="1" fill="#B23434" />
<rect x="10" y="8" width="1" height="1" fill="#E29C9C" />
<rect x="12" y="8" width="1" height="1" fill="#B23434" />
<rect x="13" y="8" width="3" height="3" fill="#0D0D0D" />
<rect x="17" y="8" width="1" height="1" fill="#B23434" />
<rect x="18" y="8" width="1" height="2" fill="#E29C9C" />
<rect x="21" y="8" width="1" height="2" fill="#E29C9C" />
<rect x="23" y="8" width="1" height="1" fill="#B23434" />
<rect x="24" y="8" width="1" height="2" fill="#E29C9C" />
<rect x="29" y="8" width="1" height="1" fill="#B23434" />
<rect x="30" y="8" width="1" height="2" fill="#E29C9C" />
<rect x="33" y="8" width="1" height="2" fill="#E29C9C" />
<rect x="35" y="8" width="2" height="5" fill="#0D0D0D" />
<rect x="37" y="8" width="1" height="1" fill="#B23434" />
<rect x="38" y="8" width="1" height="2" fill="#E29C9C" />
<rect x="39" y="8" width="2" height="5" fill="#0D0D0D" />
<rect x="42" y="8" width="1" height="1" fill="#B23434" />
<rect x="43" y="8" width="1" height="2" fill="#E29C9C" />
<rect x="45" y="8" width="1" height="1" fill="#B23434" />
<rect x="46" y="8" width="1" height="2" fill="#E29C9C" />
<rect x="49" y="8" width="1" height="2" fill="#E29C9C" />
<rect x="51" y="8" width="1" height="1" fill="#B23434" />
<rect x="52" y="8" width="5" height="1" fill="#E29C9C" />
<rect x="0" y="9" width="1" height="2" fill="#E29C9C" />
<rect x="6" y="9" width="1" height="2" fill="#0D0D0D" />
<rect x="8" y="9" width="2" height="1" fill="#E29C9C" />
<rect x="10" y="9" width="1" height="2" fill="#0D0D0D" />
<rect x="12" y="9" width="1" height="2" fill="#E29C9C" />
<rect x="17" y="9" width="1" height="2" fill="#E29C9C" />
<rect x="23" y="9" width="1" height="2" fill="#E29C9C" />
<rect x="27" y="9" width="1" height="1" fill="#E29C9C" />
<rect x="29" y="9" width="1" height="2" fill="#E29C9C" />
<rect x="37" y="9" width="1" height="2" fill="#E29C9C" />
<rect x="42" y="9" width="1" height="2" fill="#E29C9C" />
<rect x="45" y="9" width="1" height="2" fill="#E29C9C" />
<rect x="51" y="9" width="2" height="1" fill="#E29C9C" />
<rect x="53" y="9" width="1" height="4" fill="#0D0D0D" />
<rect x="54" y="9" width="3" height="1" fill="#E29C9C" />
<rect x="1" y="10" width="1" height="3" fill="#FAFAFA" />
<rect x="2" y="10" width="2" height="1" fill="#0D0D0D" />
<rect x="8" y="10" width="2" height="1" fill="#FAFAFA" />
<rect x="18" y="10" width="1" height="3" fill="#FAFAFA" />
<rect x="21" y="10" width="1" height="3" fill="#FAFAFA" />
<rect x="24" y="10" width="1" height="3" fill="#FAFAFA" />
<rect x="27" y="10" width="1" height="2" fill="#FAFAFA" />
<rect x="30" y="10" width="1" height="3" fill="#FAFAFA" />
<rect x="33" y="10" width="1" height="3" fill="#FAFAFA" />
<rect x="38" y="10" width="1" height="3" fill="#FAFAFA" />
<rect x="43" y="10" width="1" height="3" fill="#FAFAFA" />
<rect x="46" y="10" width="1" height="3" fill="#FAFAFA" />
<rect x="49" y="10" width="1" height="3" fill="#FAFAFA" />
<rect x="51" y="10" width="1" height="1" fill="#E29C9C" />
<rect x="52" y="10" width="1" height="3" fill="#FAFAFA" />
<rect x="54" y="10" width="1" height="3" fill="#0D0D0D" />
<rect x="55" y="10" width="2" height="3" fill="#FAFAFA" />
<rect x="0" y="11" width="1" height="2" fill="#FAFAFA" />
<rect x="2" y="11" width="3" height="2" fill="#FAFAFA" />
<rect x="5" y="11" width="1" height="2" fill="#0D0D0D" />
<rect x="6" y="11" width="2" height="2" fill="#FAFAFA" />
<rect x="8" y="11" width="1" height="2" fill="#0F0F0F" />
<rect x="9" y="11" width="2" height="2" fill="#FAFAFA" />
<rect x="12" y="11" width="4" height="2" fill="#FAFAFA" />
<rect x="17" y="11" width="1" height="2" fill="#FAFAFA" />
<rect x="19" y="11" width="2" height="1" fill="#FAFAFA" />
<rect x="23" y="11" width="1" height="1" fill="#FAFAFA" />
<rect x="25" y="11" width="2" height="2" fill="#FAFAFA" />
<rect x="29" y="11" width="1" height="2" fill="#FAFAFA" />
<rect x="31" y="11" width="2" height="1" fill="#FAFAFA" />
<rect x="37" y="11" width="1" height="2" fill="#FAFAFA" />
<rect x="42" y="11" width="1" height="2" fill="#FAFAFA" />
<rect x="45" y="11" width="1" height="2" fill="#FAFAFA" />
<rect x="51" y="11" width="1" height="2" fill="#FAFAFA" />
<rect x="19" y="12" width="2" height="1" fill="#0D0D0D" />
<rect x="23" y="12" width="1" height="1" fill="#0D0D0D" />
<rect x="27" y="12" width="1" height="1" fill="#0D0D0D" />
<rect x="31" y="12" width="2" height="1" fill="#0D0D0D" />
<rect x="47" y="12" width="2" height="1" fill="#FAFAFA" />
</svg>