<?xml version="1.0" encoding="UTF-8" ?>
<svg version="1.1" width="57" height="9" xmlns="http://www.w3.org/2000/svg" shape-rendering="crispEdges">
<rect x="0" y="0" width="5" height="2" fill="#B23434" />
<rect x="5" y="0" width="52" height="2" fill="#0F0F0F" />
<rect x="0" y="2" width="2" height="2" fill="#B23434" />
<rect x="2" y="2" width="4" height="2" fill="#0F0F0F" />
<rect x="6" y="2" width="2" height="2" fill="#B23434" />
<rect x="8" y="2" width="1" height="3" fill="#0F0F0F" />
<rect x="9" y="2" width="2" height="2" fill="#B23434" />
<rect x="11" y="2" width="1" height="7" fill="#0F0F0F" />
<rect x="12" y="2" width="4" height="2" fill="#B23434" />
<rect x="16" y="2" width="1" height="7" fill="#0F0F0F" />
<rect x="17" y="2" width="5" height="1" fill="#B23434" />
<rect x="22" y="2" width="1" height="7" fill="#0F0F0F" />
<rect x="23" y="2" width="2" height="2" fill="#B23434" />
<rect x="25" y="2" width="2" height="5" fill="#0F0F0F" />
<rect x="27" y="2" width="1" height="3" fill="#B23434" />
<rect x="28" y="2" width="1" height="7" fill="#0F0F0F" />
<rect x="29" y="2" width="5" height="1" fill="#B23434" />
<rect x="34" y="2" width="1" height="7" fill="#0F0F0F" />
<rect x="35" y="2" width="6" height="2" fill="#B23434" />
<rect x="41" y="2" width="1" height="7" fill="#0F0F0F" />
<rect x="42" y="2" width="2" height="2" fill="#B23434" />
<rect x="44" y="2" width="1" height="7" fill="#0F0F0F" />
<rect x="45" y="2" width="5" height="1" fill="#B23434" />
<rect x="50" y="2" width="1" height="7" fill="#0F0F0F" />
<rect x="51" y="2" width="2" height="2" fill="#B23434" />
<rect x="53" y="2" width="2" height="1" fill="#0F0F0F" />
<rect x="55" y="2" width="2" height="2" fill="#B23434" />
<rect x="17" y="3" width="2" height="1" fill="#B23434" />
<rect x="19" y="3" width="2" height="4" fill="#0F0F0F" />
<rect x="21" y="3" width="1" height="1" fill="#B23434" />
<rect x="29" y="3" width="2" height="1" fill="#B23434" />
<rect x="31" y="3" width="2" height="4" fill="#0F0F0F" />
<rect x="33" y="3" width="1" height="1" fill="#B23434" />
<rect x="45" y="3" width="2" height="1" fill="#B23434" />
<rect x="47" y="3" width="2" height="5" fill="#0F0F0F" />
<rect x="49" y="3" width="1" height="1" fill="#B23434" />
<rect x="53" y="3" width="1" height="1" fill="#B23434" />
<rect x="54" y="3" width="1" height="1" fill="#0F0F0F" />
<rect x="0" y="4" width="1" height="1" fill="#B23434" />
<rect x="1" y="4" width="3" height="2" fill="#E29C9C" />
<rect x="4" y="4" width="2" height="3" fill="#0F0F0F" />
<rect x="6" y="4" width="1" height="1" fill="#B23434" />
<rect x="7" y="4" width="1" height="3" fill="#E29C9C" />
<rect x="9" y="4" width="1" height="1" fill="#B23434" />
<rect x="10" y="4" width="1" height="1" fill="#E29C9C" />
<rect x="12" y="4" width="1" height="1" fill="#B23434" />
<rect x="13" y="4" width="3" height="3" fill="#0F0F0F" />
<rect x="17" y="4" width="1" height="1" fill="#B23434" />
<rect x="18" y="4" width="1" height="2" fill="#E29C9C" />
<rect x="21" y="4" width="1" height="2" fill="#E29C9C" />
<rect x="23" y="4" width="1" height="1" fill="#B23434" />
<rect x="24" y="4" width="1" height="2" fill="#E29C9C" />
<rect x="29" y="4" width="1" height="1" fill="#B23434" />
<rect x="30" y="4" width="1" height="2" fill="#E29C9C" />
<rect x="33" y="4" width="1" height="2" fill="#E29C9C" />
<rect x="35" y="4" width="2" height="5" fill="#0F0F0F" />
<rect x="37" y="4" width="1" height="1" fill="#B23434" />
<rect x="38" y="4" width="1" height="2" fill="#E29C9C" />
<rect x="39" y="4" width="2" height="5" fill="#0F0F0F" />
<rect x="42" y="4" width="1" height="1" fill="#B23434" />
<rect x="43" y="4" width="1" height="2" fill="#E29C9C" />
<rect x="45" y="4" width="1" height="1" fill="#B23434" />
<rect x="46" y="4" width="1" height="2" fill="#E29C9C" />
<rect x="49" y="4" width="1" height="2" fill="#E29C9C" />
<rect x="51" y="4" width="1" height="1" fill="#B23434" />
<rect x="52" y="4" width="5" height="1" fill="#E29C9C" />
<rect x="0" y="5" width="1" height="2" fill="#E29C9C" />
<rect x="6" y="5" width="1" height="2" fill="#0F0F0F" />
<rect x="8" y="5" width="2" height="1" fill="#E29C9C" />
<rect x="10" y="5" width="1" height="2" fill="#0F0F0F" />
<rect x="12" y="5" width="1" height="2" fill="#E29C9C" />
<rect x="17" y="5" width="1" height="2" fill="#E29C9C" />
<rect x="23" y="5" width="1" height="2" fill="#E29C9C" />
<rect x="27" y="5" width="1" height="1" fill="#E29C9C" />
<rect x="29" y="5" width="1" height="2" fill="#E29C9C" />
<rect x="37" y="5" width="1" height="2" fill="#E29C9C" />
<rect x="42" y="5" width="1" height="2" fill="#E29C9C" />
<rect x="45" y="5" width="1" height="2" fill="#E29C9C" />
<rect x="51" y="5" width="2" height="1" fill="#E29C9C" />
<rect x="53" y="5" width="1" height="4" fill="#0F0F0F" />
<rect x="54" y="5" width="3" height="1" fill="#E29C9C" />
<rect x="1" y="6" width="1" height="3" fill="#FAFAFA" />
<rect x="2" y="6" width="2" height="1" fill="#0F0F0F" />
<rect x="8" y="6" width="1" height="1" fill="#E29C9C" />
<rect x="9" y="6" width="1" height="3" fill="#FAFAFA" />
<rect x="18" y="6" width="1" height="3" fill="#FAFAFA" />
<rect x="21" y="6" width="1" height="3" fill="#FAFAFA" />
<rect x="24" y="6" width="1" height="3" fill="#FAFAFA" />
<rect x="27" y="6" width="1" height="2" fill="#FAFAFA" />
<rect x="30" y="6" width="1" height="3" fill="#FAFAFA" />
<rect x="33" y="6" width="1" height="3" fill="#FAFAFA" />
<rect x="38" y="6" width="1" height="3" fill="#FAFAFA" />
<rect x="43" y="6" width="1" height="3" fill="#FAFAFA" />
<rect x="46" y="6" width="1" height="3" fill="#FAFAFA" />
<rect x="49" y="6" width="1" height="3" fill="#FAFAFA" />
<rect x="51" y="6" width="1" height="1" fill="#E29C9C" />
<rect x="52" y="6" width="1" height="3" fill="#FAFAFA" />
<rect x="54" y="6" width="1" height="3" fill="#0F0F0F" />
<rect x="55" y="6" width="2" height="3" fill="#FAFAFA" />
<rect x="0" y="7" width="1" height="2" fill="#FAFAFA" />
<rect x="2" y="7" width="3" height="2" fill="#FAFAFA" />
<rect x="5" y="7" width="1" height="2" fill="#0F0F0F" />
<rect x="6" y="7" width="2" height="2" fill="#FAFAFA" />
<rect x="8" y="7" width="1" height="2" fill="#0F0F0F" />
<rect x="10" y="7" width="1" height="2" fill="#FAFAFA" />
<rect x="12" y="7" width="4" height="2" fill="#FAFAFA" />
<rect x="17" y="7" width="1" height="2" fill="#FAFAFA" />
<rect x="19" y="7" width="2" height="1" fill="#FAFAFA" />
<rect x="23" y="7" width="1" height="1" fill="#FAFAFA" />
<rect x="25" y="7" width="2" height="2" fill="#FAFAFA" />
<rect x="29" y="7" width="1" height="2" fill="#FAFAFA" />
<rect x="31" y="7" width="2" height="1" fill="#FAFAFA" />
<rect x="37" y="7" width="1" height="2" fill="#FAFAFA" />
<rect x="42" y="7" width="1" height="2" fill="#FAFAFA" />
<rect x="45" y="7" width="1" height="2" fill="#FAFAFA" />
<rect x="51" y="7" width="1" height="2" fill="#FAFAFA" />
<rect x="19" y="8" width="2" height="1" fill="#0F0F0F" />
<rect x="23" y="8" width="1" height="1" fill="#0F0F0F" />
<rect x="27" y="8" width="1" height="1" fill="#0F0F0F" />
<rect x="31" y="8" width="2" height="1" fill="#0F0F0F" />
<rect x="47" y="8" width="2" height="1" fill="#FAFAFA" />
</svg>